<?xml version="1.0" encoding="UTF-8"?>
<svg width="22px" height="22px" viewBox="0 0 22 22" version="1.1" xmlns="http://www.w3.org/2000/svg" xmlns:xlink="http://www.w3.org/1999/xlink">
    <!-- Generator: Sketch 47.1 (45422) - http://www.bohemiancoding.com/sketch -->
    <title>icon-instagram</title>
    <desc>Created with Sketch.</desc>
    <defs>
        <linearGradient x1="63.0347026%" y1="0%" x2="24.1024783%" y2="85.2258144%" id="linearGradient-1">
            <stop stop-color="#9B43AA" offset="0%"></stop>
            <stop stop-color="#E53E65" offset="32.9373211%"></stop>
            <stop stop-color="#F7883F" offset="67.2674286%"></stop>
            <stop stop-color="#FAD271" offset="100%"></stop>
        </linearGradient>
    </defs>
    <g id="Page-1" stroke="none" stroke-width="1" fill="none" fill-rule="evenodd">
        <g id="Desktop-HD" transform="translate(-199.000000, -1317.000000)" fill-rule="nonzero" fill="url(#linearGradient-1)">
            <g id="icon-instagram" transform="translate(199.000000, 1317.000000)">
                <path d="M11,0 C13.9874167,0 14.3623333,0.0128333333 15.5356667,0.066 C17.3231667,0.147583333 18.8934167,0.58575 20.1538333,1.84616667 C21.41425,3.10658333 21.8524167,4.67683333 21.934,6.46433333 C21.9871667,7.63766667 22,8.01258333 22,11 C22,13.9874167 21.9871667,14.3623333 21.934,15.5356667 C21.8524167,17.3231667 21.41425,18.8934167 20.1538333,20.1538333 C18.8934167,21.41425 17.3231667,21.8524167 15.5356667,21.934 C14.3623333,21.9871667 13.9874167,22 11,22 C8.01258333,22 7.63766667,21.9871667 6.46433333,21.934 C4.67683333,21.8524167 3.10658333,21.41425 1.84616667,20.1538333 C0.58575,18.8934167 0.147583333,17.3231667 0.066,15.5356667 C0.0128333333,14.3623333 0,13.9874167 0,11 C0,8.01258333 0.0128333333,7.63766667 0.066,6.46433333 C0.147583333,4.67683333 0.58575,3.10658333 1.84616667,1.84616667 C3.10658333,0.58575 4.67683333,0.147583333 6.46433333,0.066 C7.63766667,0.0128333333 8.01258333,0 11,0 Z M11,1.98183333 C8.063,1.98183333 7.71466667,1.99283333 6.55508333,2.046 C5.30291667,2.10283333 4.1415,2.354 3.24775,3.24775 C2.354,4.1415 2.10283333,5.30291667 2.046,6.55508333 C1.99283333,7.71466667 1.98183333,8.063 1.98183333,11 C1.98183333,13.937 1.99283333,14.2853333 2.046,15.4449167 C2.10283333,16.6970833 2.354,17.8585 3.24775,18.75225 C4.1415,19.646 5.30291667,19.8971667 6.55508333,19.954 C7.71466667,20.0071667 8.063,20.0181667 11,20.0181667 C13.937,20.0181667 14.2853333,20.0071667 15.4449167,19.954 C16.6970833,19.8971667 17.8585,19.646 18.75225,18.75225 C19.646,17.8585 19.8971667,16.6970833 19.954,15.4449167 C20.0071667,14.2853333 20.0181667,13.937 20.0181667,11 C20.0181667,8.063 20.0071667,7.71466667 19.954,6.55508333 C19.8971667,5.30291667 19.646,4.1415 18.75225,3.24775 C17.8585,2.354 16.6970833,2.10283333 15.4449167,2.046 C14.2853333,1.99283333 13.937,1.98183333 11,1.98183333 Z M11,5.3515 C14.1194167,5.3515 16.6485,7.88058333 16.6485,11 C16.6485,14.1194167 14.1194167,16.6485 11,16.6485 C7.88058333,16.6485 5.3515,14.1194167 5.3515,11 C5.3515,7.88058333 7.88058333,5.3515 11,5.3515 Z M11,14.6666667 C13.0249167,14.6666667 14.6666667,13.0249167 14.6666667,11 C14.6666667,8.97508333 13.0249167,7.33333333 11,7.33333333 C8.97508333,7.33333333 7.33333333,8.97508333 7.33333333,11 C7.33333333,13.0249167 8.97508333,14.6666667 11,14.6666667 Z M16.8721667,6.44783333 C16.1431508,6.44783333 15.5521667,5.8568492 15.5521667,5.12783333 C15.5521667,4.39881746 16.1431508,3.80783333 16.8721667,3.80783333 C17.6011825,3.80783333 18.1921667,4.39881746 18.1921667,5.12783333 C18.1921667,5.8568492 17.6011825,6.44783333 16.8721667,6.44783333 Z" id="Combined-Shape"></path>
            </g>
        </g>
    </g>
</svg>